<svg xmlns="http://www.w3.org/2000/svg" width="500" height="500" viewBox="0 0 500 500" version="1.1"><path d="M 131.462 132.250 L 126.500 137.500 131.750 132.538 C 136.628 127.926, 137.459 127, 136.712 127 C 136.554 127, 134.192 129.363, 131.462 132.250 M 367.500 132 C 370.209 134.750, 372.650 137, 372.925 137 C 373.200 137, 371.209 134.750, 368.500 132 C 365.791 129.250, 363.350 127, 363.075 127 C 362.800 127, 364.791 129.250, 367.500 132 M 239 208.431 C 224.271 212.529, 212.322 224.601, 208.395 239.350 C 201.315 265.940, 222.292 292.978, 250 292.978 C 273.363 292.978, 292.976 273.364, 292.976 250 C 292.976 222.283, 265.438 201.075, 239 208.431 M 252 328.500 C 255.543 332.075, 258.667 335, 258.942 335 C 259.217 335, 256.543 332.075, 253 328.500 C 249.457 324.925, 246.333 322, 246.058 322 C 245.783 322, 248.457 324.925, 252 328.500 M 324.500 346 C 327.209 348.750, 329.650 351, 329.925 351 C 330.200 351, 328.209 348.750, 325.500 346 C 322.791 343.250, 320.350 341, 320.075 341 C 319.800 341, 321.791 343.250, 324.500 346" stroke="none" fill="#da252a" fill-rule="evenodd"/><path d="M 228 84.578 C 223.325 85.233, 217.250 86.276, 214.500 86.895 C 211.750 87.515, 208.027 88.303, 206.226 88.646 C 204.425 88.989, 202.711 89.659, 202.417 90.135 C 202.123 90.611, 201.096 91, 200.135 91 C 197.752 91, 182.327 97.293, 173.079 102.039 C 165.587 105.884, 155.401 112.607, 144.905 120.634 C 139.331 124.897, 123.914 140.571, 118.346 147.636 C 100.900 169.769, 88.375 199.891, 84.512 229 C 83.013 240.293, 82.807 259.122, 84.091 267.500 C 87.246 288.092, 88.970 294.857, 95.181 311 C 108.483 345.578, 133.707 374.579, 168.090 394.829 C 180.747 402.284, 198.451 409.123, 215.500 413.144 C 233.416 417.369, 264.931 417.831, 281.500 414.111 C 296.341 410.779, 315.427 404.431, 318.450 401.820 C 320.668 399.905, 323.291 401.449, 330.677 409.020 L 338.500 417.040 377.687 416.770 L 416.874 416.500 403.270 402.500 C 395.788 394.800, 384.917 383.668, 379.113 377.763 L 368.559 367.025 372.616 362.763 C 384.847 349.911, 396.195 332.011, 404.951 311.761 C 406.078 309.154, 407 306.561, 407 305.997 C 407 305.434, 407.395 304.191, 407.877 303.236 C 409.301 300.418, 411 294.511, 411 292.379 C 411 291.291, 411.381 289.972, 411.846 289.450 C 412.628 288.572, 413.470 284.216, 415.896 268.500 C 418.187 253.661, 416.177 223.410, 412.009 210 C 411.582 208.625, 410.678 205.475, 410.002 203 C 409.326 200.525, 408.417 197.600, 407.984 196.500 C 407.550 195.400, 406.176 191.800, 404.930 188.500 C 400.200 175.973, 389.880 157.966, 380.860 146.500 C 376.131 140.488, 360.362 124.663, 355.087 120.634 C 338.367 107.865, 328.637 102.031, 314.974 96.586 C 309.763 94.509, 304.719 92.403, 303.764 91.905 C 302.809 91.407, 301.148 91, 300.073 91 C 298.998 91, 297.877 90.611, 297.583 90.135 C 297.289 89.659, 295.575 88.987, 293.774 88.643 C 291.973 88.298, 288.475 87.554, 286 86.990 C 269.182 83.155, 245.263 82.160, 228 84.578 M 233 141.482 C 202.886 147.096, 177.172 163.434, 159.786 188 C 147.867 204.841, 140.037 229.423, 140.037 250 C 140.037 272.444, 148.857 298.028, 162.955 316.477 C 164.961 319.104, 180.896 335.039, 183.523 337.045 C 201.894 351.083, 227.717 360, 250 360 C 257.174 360, 265.226 358.879, 276.729 356.279 C 278.684 355.837, 276.930 353.660, 262.519 338.637 L 246.079 321.500 254.290 320.895 C 267.349 319.933, 278.064 316.567, 286.118 310.895 L 288.736 309.052 321.967 343.026 C 340.243 361.712, 355.490 376.995, 355.849 376.989 C 356.207 376.983, 358.969 374.792, 361.986 372.121 L 367.473 367.265 362.486 362.316 C 359.744 359.594, 350.817 350.491, 342.648 342.086 L 327.796 326.805 330.702 323.653 C 349.165 303.621, 359.927 276.300, 359.982 249.326 C 360.023 228.712, 350.856 201.697, 338.153 185 C 322.930 164.989, 300.368 149.563, 278 143.872 C 262.803 140.006, 245.769 139.101, 233 141.482" stroke="none" fill="#040404" fill-rule="evenodd"/></svg>